<?xml version="1.0" standalone="no"?>
<!DOCTYPE svg PUBLIC "-//W3C//DTD SVG 20010904//EN"
 "http://www.w3.org/TR/2001/REC-SVG-20010904/DTD/svg10.dtd">
<svg version="1.0" xmlns="http://www.w3.org/2000/svg"
 width="640.000000pt" height="640.000000pt" viewBox="0 0 640.000000 640.000000"
 preserveAspectRatio="xMidYMid meet">

<g transform="translate(0.000000,640.000000) scale(0.100000,-0.100000)"
fill="#000000" stroke="none">
<path d="M0 3200 l0 -3200 3200 0 3200 0 0 3200 0 3200 -3200 0 -3200 0 0
-3200z m3293 1189 c-28 -83 -65 -580 -44 -594 7 -4 11 4 11 22 0 57 39 212 70
284 61 140 125 205 228 235 83 24 88 16 29 -46 -76 -80 -179 -206 -221 -273
-40 -63 -96 -181 -96 -202 0 -20 19 -28 34 -16 32 26 183 92 253 111 102 27
224 27 300 0 75 -26 87 -40 32 -34 l-44 5 46 -25 c54 -29 103 -75 124 -117 19
-36 33 -135 24 -174 -4 -16 -7 -24 -8 -17 -2 22 -123 135 -195 181 -134 88
-310 123 -426 87 l-45 -15 91 0 c111 -1 202 -27 257 -71 67 -57 127 -223 103
-286 -5 -14 -11 -8 -28 26 -28 56 -184 219 -255 266 -59 39 -130 61 -146 45
-5 -5 2 -11 21 -16 31 -6 106 -64 122 -95 14 -26 29 -100 20 -100 -4 0 -13 13
-20 30 -22 54 -164 151 -194 133 -33 -21 -51 -61 -60 -133 -10 -97 -8 -362 5
-375 5 -5 9 -156 9 -360 0 -193 4 -386 9 -430 6 -44 13 -119 17 -166 6 -81 5
-87 -17 -108 -34 -31 -102 -29 -135 4 -21 21 -25 32 -20 63 16 103 26 267 16
270 -7 3 -10 123 -10 363 l0 359 23 0 c22 0 22 1 22 153 0 186 -17 313 -44
340 -19 20 -20 20 -63 -6 -24 -14 -69 -52 -100 -85 -51 -53 -58 -58 -58 -36 0
46 30 99 77 134 54 40 44 50 -21 19 -83 -39 -255 -217 -311 -322 -11 -20 -23
-37 -27 -37 -14 0 -8 102 9 164 14 51 26 71 78 121 78 77 152 105 283 105 80
1 85 2 62 15 -32 18 -159 19 -225 1 -108 -29 -223 -104 -349 -229 l-68 -68 3
79 c3 66 9 86 34 128 38 60 121 120 197 141 32 9 55 20 52 25 -7 12 -181 8
-214 -4 l-24 -9 19 22 c50 54 163 83 267 69 122 -18 321 -93 368 -140 18 -18
20 -18 20 -2 0 25 -73 140 -144 227 -48 59 -197 209 -246 247 -19 15 -32 29
-30 31 10 10 113 -13 153 -33 98 -48 177 -160 279 -390 l15 -35 5 32 c2 18 1
30 -4 27 -4 -3 -8 -1 -8 5 0 5 4 11 10 13 6 2 5 42 -1 108 -20 189 5 306 77
373 39 37 44 34 27 -14z m-262 -96 c68 -61 95 -122 149 -330 5 -19 4 -33 -1
-33 -5 0 -9 6 -9 14 0 19 -95 202 -159 306 -29 47 -55 89 -58 93 -10 17 39
-15 78 -50z m824 -94 l50 -24 -45 -6 c-111 -17 -378 -169 -499 -284 -86 -82
-88 -81 -29 15 170 280 350 383 523 299z m-1114 -25 c76 -22 132 -61 224 -155
44 -45 74 -78 66 -74 -8 5 5 -11 27 -33 23 -23 42 -46 42 -52 0 -5 -38 15 -84
45 -157 101 -379 202 -471 214 l-50 7 45 23 c85 45 119 49 201 25z m966 -189
c28 -15 28 -15 -23 -15 -58 0 -153 -28 -238 -72 -68 -34 -60 -18 17 39 93 68
174 84 244 48z m310 -828 c-8 -18 -67 -173 -133 -345 l-119 -313 -79 3 -79 3
-30 80 c-16 44 -71 188 -122 320 -51 132 -96 250 -100 263 -6 22 -5 22 72 22
l78 0 89 -256 c49 -140 92 -251 96 -247 7 8 63 161 145 395 l37 107 72 3 c39
2 74 2 78 0 4 -2 2 -17 -5 -35z m-2897 -32 l0 -65 -110 0 -110 0 0 -280 0
-281 -72 3 -73 3 -3 278 -2 277 -105 0 -105 0 0 65 0 65 290 0 290 0 0 -65z
m326 -192 c-3 -38 -6 -68 -6 -69 0 0 -22 -1 -49 -2 -60 -1 -95 -22 -111 -65
-7 -18 -15 -92 -17 -164 l-6 -133 -63 0 -64 0 0 245 0 245 70 0 70 0 -6 -40
c-8 -47 5 -52 29 -11 21 36 70 60 121 61 l39 0 -7 -67z m402 48 c45 -23 77
-56 91 -94 6 -16 11 -105 11 -208 l0 -179 -65 0 c-63 0 -65 1 -65 25 0 14 -4
25 -10 25 -5 0 -10 -4 -10 -9 0 -5 -16 -19 -35 -31 -46 -28 -152 -30 -197 -3
-55 32 -73 67 -73 140 0 60 2 67 32 93 43 39 120 60 216 60 l79 0 -7 28 c-12
48 -33 62 -94 62 -40 0 -69 -7 -102 -25 -52 -27 -53 -26 -92 37 l-17 28 52 26
c74 37 93 42 176 43 53 1 83 -4 110 -18z m1072 -2 c56 -25 86 -53 112 -103 26
-51 37 -154 17 -167 -8 -5 -89 -9 -181 -9 -100 0 -168 -4 -168 -10 0 -25 26
-60 60 -79 51 -28 106 -27 165 5 l48 25 31 -30 c39 -39 31 -55 -48 -95 -48
-25 -68 -29 -130 -29 -123 1 -210 55 -254 157 -18 42 -17 156 3 202 21 51 80
112 130 135 56 26 156 25 215 -2z m1436 0 c89 -43 138 -128 132 -227 l-3 -47
-177 -3 c-98 -1 -178 -5 -178 -8 0 -3 7 -18 15 -35 36 -69 125 -88 211 -44
l48 25 28 -27 c15 -15 28 -33 28 -40 0 -24 -78 -70 -137 -82 -63 -12 -154 -1
-203 24 -46 24 -99 87 -116 138 -43 129 14 269 131 323 66 31 161 33 221 3z
m534 -49 l0 -70 -54 0 c-44 0 -58 -4 -79 -26 -32 -32 -36 -54 -39 -209 l-3
-120 -67 -3 -68 -3 0 246 0 245 71 0 72 0 -6 -40 c-6 -48 2 -51 25 -10 20 35
67 59 116 60 l32 0 0 -70z m360 43 c30 -16 55 -32 57 -38 1 -5 -12 -28 -30
-49 l-33 -39 -31 23 c-41 29 -109 33 -129 6 -23 -32 -1 -53 83 -78 170 -51
216 -183 96 -274 -80 -61 -198 -56 -305 14 l-37 24 35 44 36 43 39 -26 c73
-48 159 -47 159 3 0 29 -29 49 -101 70 -103 30 -149 77 -149 151 0 43 41 105
85 130 60 34 154 32 225 -4z m503 6 c58 -29 75 -46 105 -104 18 -36 25 -67 26
-110 l1 -60 -182 -5 -183 -5 18 -34 c25 -50 74 -74 141 -67 34 3 66 13 84 27
34 24 48 20 81 -24 19 -25 19 -27 2 -46 -33 -37 -114 -63 -193 -63 -130 0
-226 66 -259 178 -36 124 26 263 141 315 58 27 163 25 218 -2z m-3598 -11 c13
-42 108 -303 112 -308 7 -8 19 19 74 175 l54 155 73 0 c41 0 72 -4 70 -9 -1
-5 -46 -115 -98 -245 l-95 -236 -73 0 -73 0 -20 48 c-40 91 -179 433 -179 439
0 2 33 3 74 3 69 0 75 -2 81 -22z"/>
<path d="M1693 2710 c-47 -11 -63 -28 -63 -66 0 -104 169 -69 187 39 l6 37
-49 -1 c-27 -1 -64 -5 -81 -9z"/>
<path d="M2764 2886 c-35 -16 -64 -51 -64 -79 0 -16 9 -17 108 -15 101 3 107
4 110 24 8 58 -86 101 -154 70z"/>
<path d="M4192 2885 c-31 -14 -67 -69 -55 -88 6 -10 212 -8 218 2 2 4 -4 23
-13 42 -28 56 -84 73 -150 44z"/>
<path d="M5578 2883 c-29 -19 -54 -65 -43 -82 8 -13 201 -15 209 -2 3 5 1 22
-4 38 -20 57 -105 81 -162 46z"/>
</g>
</svg>
